<mxfile host="app.diagrams.net" agent="Mozilla/5.0 (Macintosh; Intel Mac OS X 10_15_7) AppleWebKit/605.1.15 (KHTML, like Gecko) Version/17.5 Safari/605.1.15" version="24.7.10">
  <diagram name="Page-1" id="QFUGF1i81OGyTDEIsBkC">
    <mxGraphModel dx="972" dy="572" grid="1" gridSize="10" guides="1" tooltips="1" connect="1" arrows="1" fold="1" page="1" pageScale="1" pageWidth="827" pageHeight="1169" math="0" shadow="0">
      <root>
        <mxCell id="0" />
        <mxCell id="1" parent="0" />
        <mxCell id="f-AIvh3X5k20ONKogH7F-13" value="" style="shape=flexArrow;endArrow=classic;html=1;rounded=0;" edge="1" parent="1">
          <mxGeometry width="50" height="50" relative="1" as="geometry">
            <mxPoint x="250" y="320" as="sourcePoint" />
            <mxPoint x="560" y="320" as="targetPoint" />
          </mxGeometry>
        </mxCell>
        <mxCell id="f-AIvh3X5k20ONKogH7F-14" value="export" style="text;html=1;align=center;verticalAlign=middle;whiteSpace=wrap;rounded=0;" vertex="1" parent="1">
          <mxGeometry x="240" y="340" width="60" height="30" as="geometry" />
        </mxCell>
        <mxCell id="f-AIvh3X5k20ONKogH7F-15" value="mongo import" style="text;html=1;align=center;verticalAlign=middle;whiteSpace=wrap;rounded=0;" vertex="1" parent="1">
          <mxGeometry x="500" y="390" width="60" height="30" as="geometry" />
        </mxCell>
        <mxCell id="f-AIvh3X5k20ONKogH7F-16" value="3-4 saat" style="text;html=1;align=center;verticalAlign=middle;whiteSpace=wrap;rounded=0;" vertex="1" parent="1">
          <mxGeometry x="370" y="360" width="60" height="30" as="geometry" />
        </mxCell>
        <mxCell id="f-AIvh3X5k20ONKogH7F-17" value="mongo import" style="text;html=1;align=center;verticalAlign=middle;whiteSpace=wrap;rounded=0;" vertex="1" parent="1">
          <mxGeometry x="510" y="350" width="60" height="30" as="geometry" />
        </mxCell>
        <mxCell id="f-AIvh3X5k20ONKogH7F-18" value="1. Pluginlab userları aldık" style="text;html=1;align=center;verticalAlign=middle;whiteSpace=wrap;rounded=0;" vertex="1" parent="1">
          <mxGeometry x="680" y="200" width="60" height="30" as="geometry" />
        </mxCell>
        <mxCell id="f-AIvh3X5k20ONKogH7F-19" value="2. Userdan stripe verilerini çekecek backend" style="text;html=1;align=center;verticalAlign=middle;whiteSpace=wrap;rounded=0;" vertex="1" parent="1">
          <mxGeometry x="680" y="300" width="60" height="30" as="geometry" />
        </mxCell>
        <mxCell id="f-AIvh3X5k20ONKogH7F-20" value="Mongo&#39;ya pluginlab + stripe kaydet" style="text;html=1;align=center;verticalAlign=middle;whiteSpace=wrap;rounded=0;" vertex="1" parent="1">
          <mxGeometry x="680" y="390" width="60" height="30" as="geometry" />
        </mxCell>
        <mxCell id="f-AIvh3X5k20ONKogH7F-21" value="Hepsinden bir kez çalıştır" style="text;html=1;align=center;verticalAlign=middle;whiteSpace=wrap;rounded=0;" vertex="1" parent="1">
          <mxGeometry x="680" y="460" width="60" height="30" as="geometry" />
        </mxCell>
        <mxCell id="f-AIvh3X5k20ONKogH7F-22" value="Bir kez çalıştır" style="text;html=1;align=center;verticalAlign=middle;whiteSpace=wrap;rounded=0;" vertex="1" parent="1">
          <mxGeometry x="810" y="290" width="60" height="30" as="geometry" />
        </mxCell>
        <mxCell id="f-AIvh3X5k20ONKogH7F-27" style="edgeStyle=orthogonalEdgeStyle;rounded=0;orthogonalLoop=1;jettySize=auto;html=1;entryX=0;entryY=0.5;entryDx=0;entryDy=0;" edge="1" parent="1" source="f-AIvh3X5k20ONKogH7F-23" target="f-AIvh3X5k20ONKogH7F-25">
          <mxGeometry relative="1" as="geometry" />
        </mxCell>
        <mxCell id="f-AIvh3X5k20ONKogH7F-23" value="Yeni pluginlab kullanıcıları için webhook" style="text;html=1;align=center;verticalAlign=middle;whiteSpace=wrap;rounded=0;" vertex="1" parent="1">
          <mxGeometry x="810" y="210" width="60" height="30" as="geometry" />
        </mxCell>
        <mxCell id="f-AIvh3X5k20ONKogH7F-28" style="edgeStyle=orthogonalEdgeStyle;rounded=0;orthogonalLoop=1;jettySize=auto;html=1;entryX=0.25;entryY=0;entryDx=0;entryDy=0;" edge="1" parent="1" source="f-AIvh3X5k20ONKogH7F-24" target="f-AIvh3X5k20ONKogH7F-25">
          <mxGeometry relative="1" as="geometry" />
        </mxCell>
        <mxCell id="f-AIvh3X5k20ONKogH7F-24" value="Iterate over 300.000 users" style="text;html=1;align=center;verticalAlign=middle;whiteSpace=wrap;rounded=0;" vertex="1" parent="1">
          <mxGeometry x="1060" y="220" width="60" height="30" as="geometry" />
        </mxCell>
        <mxCell id="f-AIvh3X5k20ONKogH7F-35" style="edgeStyle=orthogonalEdgeStyle;rounded=0;orthogonalLoop=1;jettySize=auto;html=1;entryX=0.75;entryY=0;entryDx=0;entryDy=0;" edge="1" parent="1" source="f-AIvh3X5k20ONKogH7F-25" target="f-AIvh3X5k20ONKogH7F-34">
          <mxGeometry relative="1" as="geometry" />
        </mxCell>
        <mxCell id="f-AIvh3X5k20ONKogH7F-25" value="Migrate&amp;nbsp;" style="text;html=1;align=center;verticalAlign=middle;whiteSpace=wrap;rounded=0;" vertex="1" parent="1">
          <mxGeometry x="1070" y="330" width="60" height="30" as="geometry" />
        </mxCell>
        <mxCell id="f-AIvh3X5k20ONKogH7F-26" value="Manual 1 kez" style="text;html=1;align=center;verticalAlign=middle;whiteSpace=wrap;rounded=0;" vertex="1" parent="1">
          <mxGeometry x="1150" y="210" width="60" height="30" as="geometry" />
        </mxCell>
        <mxCell id="f-AIvh3X5k20ONKogH7F-29" value="Yeni kullanıcı gelince çalıştır" style="text;html=1;align=center;verticalAlign=middle;whiteSpace=wrap;rounded=0;" vertex="1" parent="1">
          <mxGeometry x="950" y="360" width="60" height="30" as="geometry" />
        </mxCell>
        <mxCell id="f-AIvh3X5k20ONKogH7F-30" value="1. Pluginlabdan 1 user verisi çek" style="text;html=1;align=center;verticalAlign=middle;whiteSpace=wrap;rounded=0;" vertex="1" parent="1">
          <mxGeometry x="1200" y="320" width="60" height="30" as="geometry" />
        </mxCell>
        <mxCell id="f-AIvh3X5k20ONKogH7F-48" style="edgeStyle=orthogonalEdgeStyle;rounded=0;orthogonalLoop=1;jettySize=auto;html=1;entryX=0.75;entryY=0;entryDx=0;entryDy=0;" edge="1" parent="1" source="f-AIvh3X5k20ONKogH7F-32" target="f-AIvh3X5k20ONKogH7F-45">
          <mxGeometry relative="1" as="geometry" />
        </mxCell>
        <mxCell id="f-AIvh3X5k20ONKogH7F-32" value="2. Stripe&#39;tan emaile göre bilgi çeken backend" style="text;html=1;align=center;verticalAlign=middle;whiteSpace=wrap;rounded=0;" vertex="1" parent="1">
          <mxGeometry x="1211" y="400" width="60" height="30" as="geometry" />
        </mxCell>
        <mxCell id="f-AIvh3X5k20ONKogH7F-33" value="3.Parse&#39;a ekleme" style="text;html=1;align=center;verticalAlign=middle;whiteSpace=wrap;rounded=0;" vertex="1" parent="1">
          <mxGeometry x="1210" y="480" width="60" height="30" as="geometry" />
        </mxCell>
        <mxCell id="f-AIvh3X5k20ONKogH7F-34" value="4. vercel deploy" style="text;html=1;align=center;verticalAlign=middle;whiteSpace=wrap;rounded=0;" vertex="1" parent="1">
          <mxGeometry x="1060" y="400" width="60" height="30" as="geometry" />
        </mxCell>
        <mxCell id="f-AIvh3X5k20ONKogH7F-40" style="edgeStyle=orthogonalEdgeStyle;rounded=0;orthogonalLoop=1;jettySize=auto;html=1;" edge="1" parent="1" source="f-AIvh3X5k20ONKogH7F-37" target="f-AIvh3X5k20ONKogH7F-38">
          <mxGeometry relative="1" as="geometry" />
        </mxCell>
        <mxCell id="f-AIvh3X5k20ONKogH7F-37" value="4. PluginlabImport" style="text;html=1;align=center;verticalAlign=middle;whiteSpace=wrap;rounded=0;" vertex="1" parent="1">
          <mxGeometry x="1211" y="530" width="60" height="30" as="geometry" />
        </mxCell>
        <mxCell id="f-AIvh3X5k20ONKogH7F-44" style="edgeStyle=orthogonalEdgeStyle;rounded=0;orthogonalLoop=1;jettySize=auto;html=1;entryX=1;entryY=0.75;entryDx=0;entryDy=0;" edge="1" parent="1" source="f-AIvh3X5k20ONKogH7F-38" target="f-AIvh3X5k20ONKogH7F-41">
          <mxGeometry relative="1" as="geometry" />
        </mxCell>
        <mxCell id="f-AIvh3X5k20ONKogH7F-38" value="Pluginlab&#39;dan veri çektiği gibi PluginlabImporttan veri çeken backend" style="text;html=1;align=center;verticalAlign=middle;whiteSpace=wrap;rounded=0;" vertex="1" parent="1">
          <mxGeometry x="1380" y="600" width="60" height="30" as="geometry" />
        </mxCell>
        <mxCell id="f-AIvh3X5k20ONKogH7F-41" value="" style="shape=trapezoid;perimeter=trapezoidPerimeter;whiteSpace=wrap;html=1;fixedSize=1;" vertex="1" parent="1">
          <mxGeometry x="1320" y="440" width="120" height="60" as="geometry" />
        </mxCell>
        <mxCell id="f-AIvh3X5k20ONKogH7F-42" value="Actor" style="shape=umlActor;verticalLabelPosition=bottom;verticalAlign=top;html=1;outlineConnect=0;" vertex="1" parent="1">
          <mxGeometry x="1360" y="440" width="30" height="60" as="geometry" />
        </mxCell>
        <mxCell id="f-AIvh3X5k20ONKogH7F-45" value="5. Pluginlab yerine bunu çağır user get fonksiyonu stripe&#39;a da sorgu atar" style="text;html=1;align=center;verticalAlign=middle;whiteSpace=wrap;rounded=0;" vertex="1" parent="1">
          <mxGeometry x="1460" y="610" width="60" height="30" as="geometry" />
        </mxCell>
        <mxCell id="f-AIvh3X5k20ONKogH7F-52" style="edgeStyle=orthogonalEdgeStyle;rounded=0;orthogonalLoop=1;jettySize=auto;html=1;" edge="1" parent="1" source="f-AIvh3X5k20ONKogH7F-49" target="f-AIvh3X5k20ONKogH7F-53">
          <mxGeometry relative="1" as="geometry">
            <mxPoint x="1850" y="355" as="targetPoint" />
          </mxGeometry>
        </mxCell>
        <UserObject label="https://my.keymate.ai/pricing Plan sayfası bunun kopyası lazım" link="https://my.keymate.ai/sign-in" id="f-AIvh3X5k20ONKogH7F-49">
          <mxCell style="text;whiteSpace=wrap;" vertex="1" parent="1">
            <mxGeometry x="1580" y="335" width="180" height="40" as="geometry" />
          </mxCell>
        </UserObject>
        <mxCell id="f-AIvh3X5k20ONKogH7F-57" style="edgeStyle=orthogonalEdgeStyle;rounded=0;orthogonalLoop=1;jettySize=auto;html=1;" edge="1" parent="1" source="f-AIvh3X5k20ONKogH7F-50">
          <mxGeometry relative="1" as="geometry">
            <mxPoint x="1890" y="460" as="targetPoint" />
          </mxGeometry>
        </mxCell>
        <UserObject label="Auth0 https://my.keymate.ai/sign-in" link="https://my.keymate.ai/sign-in" id="f-AIvh3X5k20ONKogH7F-50">
          <mxCell style="text;whiteSpace=wrap;" vertex="1" parent="1">
            <mxGeometry x="1580" y="440" width="180" height="40" as="geometry" />
          </mxCell>
        </UserObject>
        <mxCell id="f-AIvh3X5k20ONKogH7F-51" value="1." style="text;html=1;align=center;verticalAlign=middle;whiteSpace=wrap;rounded=0;" vertex="1" parent="1">
          <mxGeometry x="1520" y="330" width="60" height="30" as="geometry" />
        </mxCell>
        <mxCell id="f-AIvh3X5k20ONKogH7F-53" value="&lt;span style=&quot;text-align: left;&quot;&gt;Auth0 https://my.keymate.ai/sign-in&lt;/span&gt;" style="text;html=1;align=center;verticalAlign=middle;whiteSpace=wrap;rounded=0;" vertex="1" parent="1">
          <mxGeometry x="1840" y="340" width="60" height="30" as="geometry" />
        </mxCell>
        <mxCell id="f-AIvh3X5k20ONKogH7F-54" style="edgeStyle=orthogonalEdgeStyle;rounded=0;orthogonalLoop=1;jettySize=auto;html=1;" edge="1" parent="1">
          <mxGeometry relative="1" as="geometry">
            <mxPoint x="2020" y="355" as="targetPoint" />
            <mxPoint x="1940" y="355" as="sourcePoint" />
          </mxGeometry>
        </mxCell>
        <mxCell id="f-AIvh3X5k20ONKogH7F-55" value="Plan sayfası gösteriyor" style="text;html=1;align=center;verticalAlign=middle;whiteSpace=wrap;rounded=0;" vertex="1" parent="1">
          <mxGeometry x="2030" y="340" width="60" height="30" as="geometry" />
        </mxCell>
        <mxCell id="f-AIvh3X5k20ONKogH7F-56" value="2." style="text;html=1;align=center;verticalAlign=middle;whiteSpace=wrap;rounded=0;" vertex="1" parent="1">
          <mxGeometry x="1530" y="430" width="60" height="30" as="geometry" />
        </mxCell>
        <mxCell id="f-AIvh3X5k20ONKogH7F-58" value="Keymate GPT&#39;yi açıyor" style="text;html=1;align=center;verticalAlign=middle;resizable=0;points=[];autosize=1;strokeColor=none;fillColor=none;" vertex="1" parent="1">
          <mxGeometry x="1725" y="418" width="150" height="30" as="geometry" />
        </mxCell>
        <mxCell id="f-AIvh3X5k20ONKogH7F-59" value="Keymate GPT" style="text;html=1;align=center;verticalAlign=middle;resizable=0;points=[];autosize=1;strokeColor=none;fillColor=none;" vertex="1" parent="1">
          <mxGeometry x="1925" y="440" width="100" height="30" as="geometry" />
        </mxCell>
        <mxCell id="f-AIvh3X5k20ONKogH7F-60" value="3." style="text;html=1;align=center;verticalAlign=middle;whiteSpace=wrap;rounded=0;" vertex="1" parent="1">
          <mxGeometry x="1530" y="490" width="60" height="30" as="geometry" />
        </mxCell>
        <mxCell id="f-AIvh3X5k20ONKogH7F-62" style="edgeStyle=orthogonalEdgeStyle;rounded=0;orthogonalLoop=1;jettySize=auto;html=1;" edge="1" parent="1" source="f-AIvh3X5k20ONKogH7F-61">
          <mxGeometry relative="1" as="geometry">
            <mxPoint x="1910" y="510" as="targetPoint" />
          </mxGeometry>
        </mxCell>
        <UserObject label="app.keymate.ai" link="https://my.keymate.ai/sign-in" id="f-AIvh3X5k20ONKogH7F-61">
          <mxCell style="text;whiteSpace=wrap;" vertex="1" parent="1">
            <mxGeometry x="1580" y="490" width="180" height="40" as="geometry" />
          </mxCell>
        </UserObject>
        <mxCell id="f-AIvh3X5k20ONKogH7F-63" value="app.keymate.ai" style="text;html=1;align=center;verticalAlign=middle;whiteSpace=wrap;rounded=0;" vertex="1" parent="1">
          <mxGeometry x="1965" y="495" width="60" height="30" as="geometry" />
        </mxCell>
        <mxCell id="f-AIvh3X5k20ONKogH7F-64" value="app.keymate.ai/pricing" style="text;html=1;align=center;verticalAlign=middle;whiteSpace=wrap;rounded=0;" vertex="1" parent="1">
          <mxGeometry x="1620" y="290" width="60" height="30" as="geometry" />
        </mxCell>
        <mxCell id="f-AIvh3X5k20ONKogH7F-65" value="app.keymate.ai/pricing" style="text;html=1;align=center;verticalAlign=middle;whiteSpace=wrap;rounded=0;" vertex="1" parent="1">
          <mxGeometry x="2060" y="290" width="60" height="30" as="geometry" />
        </mxCell>
      </root>
    </mxGraphModel>
  </diagram>
</mxfile>
